<svg width="143" height="130" viewBox="0 0 143 130" fill="none" xmlns="http://www.w3.org/2000/svg">
<path d="M85.9628 5.52802C86.1772 5.71678 86.3917 5.90555 86.6126 6.10003C88.367 7.73651 89.5189 9.59477 90.6998 11.6644C91.0101 12.2013 91.3207 12.738 91.6315 13.2747C92.3518 14.5202 93.0694 15.7672 93.7856 17.0151C94.7866 18.7577 95.7981 20.4939 96.8126 22.2286C98.3235 24.8142 99.8121 27.412 101.294 30.0144C102.743 32.5594 104.209 35.0944 105.686 37.623C107.401 40.5584 109.097 43.5046 110.793 46.4512C111.664 47.9654 112.537 49.479 113.41 50.9927C113.758 51.597 114.106 52.2014 114.455 52.8057C114.627 53.1048 114.799 53.404 114.977 53.7122C121.072 64.2881 127.168 74.864 133.263 85.4399C133.436 85.7393 133.608 86.0388 133.786 86.3473C134.133 86.9483 134.479 87.5495 134.824 88.1508C135.629 89.5495 136.436 90.9468 137.253 92.3385C137.539 92.8263 137.825 93.3147 138.11 93.8032C138.465 94.4122 138.823 95.0202 139.182 95.6271C142.451 101.238 143.928 107.307 142.389 113.751C141.301 117.168 139.662 120.305 137.234 122.955C137.06 123.152 136.886 123.349 136.706 123.551C135.301 125.055 133.717 126.117 131.94 127.139C131.719 127.269 131.499 127.398 131.271 127.531C127.043 129.837 122.442 129.971 117.74 129.966C117.325 129.966 116.909 129.967 116.494 129.968C115.359 129.969 114.225 129.969 113.09 129.969C111.864 129.969 110.637 129.97 109.411 129.972C107.01 129.974 104.61 129.975 102.21 129.975C100.258 129.975 98.3055 129.976 96.3534 129.976C90.8122 129.979 85.271 129.98 79.7297 129.98C79.2821 129.98 79.2821 129.98 78.8255 129.98C78.5267 129.98 78.228 129.98 77.9202 129.98C73.0799 129.98 68.2397 129.982 63.3994 129.986C58.423 129.99 53.4466 129.992 48.4702 129.992C45.6789 129.992 42.8877 129.993 40.0964 129.996C37.7197 129.998 35.3429 129.999 32.9662 129.997C31.7551 129.996 30.5441 129.996 29.333 129.999C28.2214 130.001 27.1098 130 25.9982 129.998C25.599 129.997 25.1998 129.998 24.8006 130C17.7215 130.026 11.3854 128.663 6.11963 123.645C2.04569 119.534 0.0527195 114.172 0 108.469C0.071939 101.271 3.58063 95.9282 7.10892 89.8779C7.99542 88.3551 8.87375 86.8276 9.75267 85.3004C10.1009 84.696 10.4492 84.0917 10.7976 83.4874C11.0562 83.0387 11.0562 83.0387 11.3201 82.5809C14.629 76.8397 17.9379 71.0985 21.2469 65.3573C21.4193 65.0581 21.5917 64.7589 21.7694 64.4507C22.1175 63.8468 22.4656 63.2429 22.8137 62.639C23.6884 61.1215 24.5628 59.6038 25.4364 58.0857C27.1145 55.1704 28.7973 52.2582 30.4945 49.354C31.9087 46.9336 33.3047 44.5032 34.6916 42.0671C36.2353 39.3556 37.794 36.6535 39.3683 33.9596C40.5505 31.936 41.7247 29.9078 42.8943 27.8768C43.0676 27.5759 43.2409 27.2749 43.4195 26.9649C43.947 26.0486 44.4743 25.1323 45.0016 24.216C46.0493 22.395 47.0975 20.5743 48.1483 18.7551C48.8436 17.5514 49.5345 16.3454 50.223 15.1378C53.9062 8.70415 57.7416 3.04174 65.2393 0.845546C72.5814 -1.14882 80.2731 0.374179 85.9628 5.52802ZM65.6563 40.8817C63.711 43.3112 63.3225 45.6837 63.4903 48.7045C63.504 48.9746 63.5177 49.2448 63.5318 49.5231C63.5761 50.385 63.6232 51.2467 63.671 52.1084C63.6857 52.3801 63.7005 52.6518 63.7157 52.9317C63.8237 54.9129 63.9383 56.8937 64.0541 58.8745C64.0906 59.5018 64.127 60.1291 64.1634 60.7565C64.239 62.0583 64.3149 63.3601 64.391 64.6619C64.488 66.3223 64.5844 67.9827 64.6805 69.6432C64.7552 70.9335 64.8304 72.2237 64.9057 73.514C64.9413 74.1262 64.9769 74.7385 65.0123 75.3507C65.2267 79.0895 65.2267 79.0895 65.4778 82.8259C65.495 83.0631 65.5121 83.3002 65.5298 83.5446C65.8047 85.4633 66.6628 86.8761 68.1892 88.0471C69.5317 88.9146 71.014 89.1982 72.5877 88.9264C74.6377 88.1785 75.8464 87.2849 76.9154 85.3748C77.6181 83.6937 77.5411 81.8254 77.6208 80.0303C77.642 79.6143 77.6635 79.1984 77.6854 78.7825C77.743 77.6699 77.7964 76.5571 77.8489 75.4442C77.9042 74.2893 77.9635 73.1347 78.0227 71.9801C78.0464 71.5157 78.0702 71.0513 78.094 70.5869C78.1116 70.2424 78.1116 70.2424 78.1296 69.8909C78.165 69.1941 78.2 68.4972 78.2348 67.8004C78.3728 65.0492 78.5243 62.2994 78.6962 59.55C78.716 59.2315 78.7359 58.9129 78.7563 58.5847C78.8302 57.4078 78.9047 56.231 78.9818 55.0543C79.1553 52.3994 79.307 49.75 79.3242 47.0888C79.3266 46.8856 79.3289 46.6823 79.3313 46.4728C79.3256 43.9406 78.4615 42.1351 76.75 40.3075C74.9136 38.7028 72.8545 38.3209 70.4772 38.3474C68.4801 38.5434 67.019 39.4367 65.6563 40.8817ZM65.4735 97.3116C63.9168 99.3671 63.4405 101.441 63.671 103.988C64.2448 106.483 65.7144 108.008 67.6939 109.532C69.8412 110.476 71.9112 110.664 74.1322 109.872C76.2511 108.922 77.4921 107.578 78.7005 105.627C79.4361 103.638 79.3508 100.845 78.4687 98.9132C77.327 97.0476 75.8686 95.5646 73.7426 94.9015C70.6017 94.283 67.6614 94.9148 65.4735 97.3116Z" fill="#E7C9A3"/>
</svg>
