<svg width="127" height="130" viewBox="0 0 127 130" fill="none" xmlns="http://www.w3.org/2000/svg">
<path d="M28.6894 0.00881558C29.0008 0.00755501 29.3122 0.00629445 29.633 0.00499569C30.6675 0.00179446 31.7019 0.00431744 32.7364 0.00686743C33.4817 0.00621573 34.227 0.00436128 34.9723 0.0025766C36.7811 -0.00100333 38.5899 -0.00024634 40.3988 0.00210198C41.8698 0.0039321 43.3407 0.00417213 44.8117 0.00329482C45.0217 0.003171 45.2316 0.00304718 45.4479 0.0029196C45.8744 0.00266123 46.3009 0.00239924 46.7275 0.00213369C50.7206 -0.000166657 54.7137 0.00247275 58.7068 0.00682073C62.1278 0.0104306 65.5489 0.0098034 68.9699 0.00607832C72.9494 0.00174714 76.9289 5.52492e-05 80.9084 0.00253277C81.3333 0.00279015 81.7582 0.00304419 82.1831 0.00329482C82.4967 0.00348181 82.4967 0.00348181 82.8166 0.00367259C84.2846 0.00436823 85.7526 0.00319707 87.2207 0.00129119C89.0114 -0.000982705 90.8021 -0.000345998 92.5929 0.00394223C93.5054 0.00605573 94.4177 0.00647487 95.3302 0.00422573C96.322 0.00200696 97.3137 0.00480035 98.3055 0.00881558C98.5901 0.00701302 98.8746 0.00521047 99.1678 0.00335329C102.104 0.0262973 104.781 0.466395 106.963 2.5356C107.113 2.67726 107.262 2.81893 107.416 2.96488C110.012 5.69658 109.816 8.94061 109.797 12.4635C109.798 13.0053 109.8 13.5471 109.802 14.0889C109.805 15.2513 109.805 16.4136 109.802 17.576C109.798 19.4142 109.802 21.2523 109.806 23.0904C109.815 26.6589 109.815 30.2273 109.815 33.7957C109.814 38.3419 109.817 42.888 109.828 47.4342C109.832 49.2615 109.832 51.0887 109.828 52.916C109.827 54.0518 109.829 55.1875 109.832 56.3232C109.833 56.8498 109.832 57.3765 109.83 57.9031C109.827 58.6219 109.829 59.3406 109.832 60.0595C109.83 60.2678 109.828 60.4761 109.826 60.6907C109.839 61.9775 110.06 62.8553 110.743 63.9481C112.145 65.2488 113.711 65.2708 115.535 65.4295C119.172 65.7507 122.015 66.6834 124.562 69.3856C126.772 72.0843 127.176 75.135 126.941 78.4931C126.511 80.6068 125.686 82.2853 124.241 83.8802C124.103 84.0336 123.964 84.1871 123.821 84.3452C122.714 85.5031 121.479 86.4927 120.232 87.4954C119.266 88.2775 118.328 89.0915 117.391 89.907C115.98 91.1326 114.562 92.3478 113.131 93.5503C112.048 94.4617 110.973 95.3818 109.899 96.3041C108.803 97.245 107.699 98.1733 106.575 99.0818C104.862 100.47 103.204 101.92 101.539 103.365C99.6379 105.014 97.7326 106.657 95.776 108.24C94.063 109.628 92.4047 111.078 90.7403 112.523C88.839 114.172 86.9337 115.815 84.9771 117.398C83.7989 118.353 82.6467 119.334 81.5012 120.327C81.3295 120.476 81.1578 120.624 80.9809 120.778C80.1383 121.508 79.2977 122.241 78.4598 122.976C73.3226 127.464 68.6717 130.278 61.6507 129.978C57.2467 129.686 53.847 127.495 50.6752 124.643C50.0727 124.109 49.4456 123.608 48.8177 123.105C47.1002 121.709 45.4355 120.255 43.7651 118.804C41.8638 117.156 39.9586 115.513 38.0019 113.93C36.288 112.541 34.6291 111.09 32.9638 109.644C30.819 107.786 28.6548 105.95 26.4838 104.122C25.3965 103.205 24.3166 102.281 23.2378 101.354C22.1414 100.414 21.0375 99.4853 19.9138 98.5767C18.2008 97.1884 16.5425 95.7388 14.8781 94.2933C12.9768 92.6447 11.0715 91.0018 9.11491 89.4187C0.873795 82.7192 0.873796 82.7192 0.0539704 78.4931C-0.190467 74.989 0.357238 72.1779 2.48372 69.3351C5.21859 66.2438 8.41532 65.6786 12.3504 65.3387C13.9134 65.189 15.0558 65.0566 16.2523 63.9481C17.0558 62.6608 17.1772 61.5527 17.1626 60.0715C17.1636 59.8478 17.1647 59.6242 17.1657 59.3937C17.1682 58.6462 17.165 57.8989 17.1618 57.1514C17.1625 56.6147 17.1635 56.0779 17.1649 55.5411C17.1671 54.3859 17.1669 53.2307 17.1648 52.0755C17.1617 50.2472 17.165 48.419 17.1693 46.5908C17.1791 42.0489 17.1808 37.5069 17.1801 32.965C17.1796 29.4366 17.1816 25.9082 17.1909 22.3798C17.1954 20.5641 17.195 18.7486 17.1907 16.9329C17.1891 15.8006 17.192 14.6683 17.1961 13.5361C17.1971 13.013 17.1963 12.49 17.1935 11.967C17.1758 8.47055 17.221 5.38905 19.8062 2.72815C19.9698 2.57572 20.1334 2.42329 20.3019 2.26625C20.4432 2.13327 20.5845 2.00028 20.73 1.86327C22.9183 0.0687639 25.9843 -0.00831871 28.6894 0.00881558ZM59.5154 22.9728C58.4762 24.4127 58.2804 25.8118 58.1992 27.5518C58.1888 27.7372 58.1784 27.9226 58.1676 28.1136C58.1424 28.5659 58.1199 29.0184 58.098 29.4709C57.8955 29.5462 57.6929 29.6216 57.4842 29.6992C55.4962 30.4761 53.8361 31.3885 52.1586 32.7031C51.9533 32.8573 51.748 33.0115 51.5364 33.1703C48.1202 35.93 45.8787 40.4938 45.4093 44.824C45.0133 49.7539 46.4992 54.3571 49.5433 58.258C53.0921 62.3233 57.5604 64.2595 62.8563 64.7393C64.6696 64.9064 66.2633 65.0763 67.817 66.1029C67.9868 66.2133 68.1567 66.3237 68.3316 66.4375C69.9582 67.6546 70.9532 69.4818 71.3098 71.4731C71.4735 74.0096 70.7296 76.2325 69.1669 78.2238C67.6999 79.716 65.5617 80.3839 63.4974 80.4796C61.2617 80.3717 59.0945 79.6126 57.5581 77.9544C56.2448 76.056 55.8015 74.1685 55.4659 71.9408C55.185 70.3048 54.5575 69.2595 53.2385 68.2577C51.9084 67.4304 50.4301 67.5017 48.9189 67.719C47.4856 68.3423 46.2991 69.2132 45.6793 70.6819C44.6186 74.3516 46.1301 78.4463 47.8644 81.6759C50.2192 85.5996 53.7519 88.3606 58.098 89.8059C58.1131 90.2059 58.1131 90.2059 58.1286 90.614C58.1814 93.8293 58.1814 93.8293 59.6925 96.5387C61.276 97.9611 62.1745 98.2535 64.3126 98.2306C65.8018 98.0923 66.4847 97.3418 67.4795 96.3041C68.5187 94.8641 68.7145 93.465 68.7956 91.7251C68.8061 91.5397 68.8165 91.3543 68.8273 91.1632C68.8525 90.7109 68.875 90.2584 68.8969 89.8059C69.2007 89.6929 69.2007 89.6929 69.5107 89.5776C71.4982 88.8009 73.1558 87.8831 74.8363 86.5737C75.0218 86.4362 75.2073 86.2987 75.3984 86.1571C78.9685 83.3188 80.9605 78.8708 81.5856 74.4528C82.0361 69.624 80.4989 64.9652 77.5529 61.1367C74.0393 57.0436 69.5841 54.9555 64.2399 54.5207C64.0164 54.5081 63.7929 54.4955 63.5627 54.4824C61.3315 54.3273 59.373 53.5764 57.712 52.0502C56.2044 50.2991 55.5541 48.2822 55.7189 46.0119C56.0206 43.7764 56.8938 41.6933 58.7054 40.2618C60.6941 39.0267 62.9501 38.586 65.2354 39.0245C67.2033 39.5273 68.7304 40.3011 69.9019 41.9948C70.7707 43.5643 71.1806 45.0266 71.4448 46.7768C71.6896 48.391 72.0782 49.4668 73.2396 50.6467C74.7112 51.7074 76.3197 51.8331 78.076 51.5578C79.5011 50.9214 80.696 50.0633 81.3156 48.595C82.3763 44.9252 80.8648 40.8306 79.1305 37.6009C76.7757 33.6772 73.243 30.9163 68.8969 29.4709C68.8818 29.0709 68.8818 29.0709 68.8663 28.6628C68.8135 25.4475 68.8135 25.4475 67.3024 22.7381C65.7189 21.3157 64.8204 21.0233 62.6823 21.0462C61.1931 21.1845 60.5102 21.9351 59.5154 22.9728Z" fill="#E7C9A3"/>
</svg>
