<svg width="130" height="130" viewBox="0 0 130 130" fill="none" xmlns="http://www.w3.org/2000/svg">
<path d="M73.7778 25.3943C73.9818 25.4432 74.1858 25.4922 74.3961 25.5426C80.5834 27.0525 86.2043 29.783 90.9957 34.0032C91.217 34.1968 91.4383 34.3903 91.6663 34.5898C98.1468 40.3405 102.45 47.5922 104.416 56.032C104.457 56.1981 104.498 56.3642 104.541 56.5354C105.832 61.8481 105.763 68.4651 104.416 73.7564C104.34 74.0665 104.34 74.0665 104.263 74.3828C102.523 81.4058 99.2265 87.4322 94.2646 92.6913C93.7413 93.2991 93.3346 93.7769 93.0213 94.5191C93.2842 96.1464 94.017 96.9527 95.1834 98.0709C95.3457 98.2314 95.508 98.3919 95.6752 98.5572C96.1908 99.0658 96.7107 99.5698 97.2308 100.074C97.5826 100.419 97.934 100.765 98.2852 101.111C99.1437 101.955 100.006 102.796 100.871 103.635C91.4753 113.087 78.006 117.851 64.8206 117.893C52.8118 117.776 41.0526 113.847 31.7458 106.167C31.4971 105.964 31.2484 105.762 30.9921 105.553C30.3133 105 29.6363 104.445 28.9605 103.888C29.8737 102.767 30.8467 101.737 31.8843 100.731C32.0109 100.607 32.1376 100.484 32.268 100.356C32.7971 99.8411 33.3264 99.3261 33.8606 98.8161C34.2545 98.4391 34.6442 98.0581 35.0335 97.6763C35.2651 97.4529 35.4968 97.2295 35.7355 96.9993C36.3922 96.1811 36.6282 95.5483 36.8099 94.5191C36.2177 93.3348 35.2943 92.4049 34.3886 91.449C32.2522 89.1782 32.2522 89.1782 32.2522 88.189C35.5909 86.496 38.9319 84.8077 42.2757 83.1248C43.8283 82.3433 45.38 81.5603 46.93 80.7737C48.4255 80.0148 49.923 79.2602 51.4219 78.5081C51.9938 78.2203 52.565 77.931 53.1354 77.6403C53.9337 77.2339 54.7343 76.8325 55.5358 76.4323C55.7718 76.3106 56.0078 76.1889 56.251 76.0636C57.8173 75.2904 58.6319 75.203 60.3025 75.7662C60.5297 75.8549 60.7569 75.9437 60.9909 76.0352C64.033 77.1683 67.0023 77.0028 69.9886 75.6999C73.2844 73.9727 75.1529 71.6551 76.3543 68.1107C76.5852 67.4042 76.5852 67.4042 76.7124 66.5636C77.1767 65.3804 77.8366 65.0839 78.9398 64.5925C79.1259 64.5031 79.3121 64.4137 79.5039 64.3215C80.0983 64.037 80.6961 63.761 81.2948 63.4857C81.8883 63.2085 82.4808 62.9294 83.0721 62.6473C83.4392 62.4725 83.8078 62.3006 84.178 62.1323C85.7304 61.4011 87.3348 60.4112 88.0522 58.7856C88.1272 58.6231 88.2023 58.4605 88.2797 58.2931C89.0215 56.3228 88.8246 54.699 87.9879 52.8057C87.1783 51.1753 86.0319 50.4433 84.4123 49.7019C81.1022 48.7032 78.0379 50.6792 75.1704 52.139C74.7278 52.3613 74.7278 52.3613 74.2762 52.5881C72.726 53.3629 72.726 53.3629 71.2457 54.2596C70.1 54.1778 69.0725 53.7927 67.9946 53.4238C65.2928 52.5493 62.411 52.9679 59.8426 54.0885C56.5129 55.8335 54.6637 58.1751 53.4521 61.7519C53.2551 62.3359 53.2551 62.3359 53.2172 62.857C52.9061 63.6538 52.3772 63.7992 51.6215 64.1703C51.3227 64.3192 51.024 64.4681 50.7162 64.6215C50.3859 64.7817 50.0556 64.9418 49.7253 65.1019C49.385 65.27 49.045 65.4385 48.705 65.6073C47.8051 66.0532 46.9032 66.4949 46.0007 66.9356C45.1018 67.3752 44.2045 67.8181 43.3071 68.261C43.0455 68.3902 43.0455 68.3902 42.7785 68.522C42.4293 68.6943 42.0801 68.8667 41.731 69.0392C41.2125 69.295 40.6937 69.5504 40.175 69.8057C37.7546 70.9986 35.3592 72.233 32.9793 73.5046C31.817 74.1221 30.6427 74.7159 29.4669 75.3072C29.2293 75.4287 28.9917 75.5501 28.7469 75.6752C28.5197 75.7894 28.2925 75.9037 28.0585 76.0214C27.8597 76.1219 27.6609 76.2225 27.4561 76.3261C26.9349 76.5416 26.9349 76.5416 26.1753 76.5416C26.0142 75.9833 25.8567 75.4239 25.7005 74.8641C25.6124 74.5527 25.5243 74.2414 25.4335 73.9205C24.7011 70.9548 24.5611 67.9939 24.5769 64.9575C24.5775 64.7681 24.578 64.5787 24.5786 64.3836C24.5917 61.5358 24.7133 58.8015 25.4157 56.032C25.4646 55.828 25.5136 55.624 25.564 55.4137C27.0739 49.2263 29.8044 43.6055 34.0246 38.8141C34.2182 38.5928 34.4117 38.3715 34.6111 38.1435C40.3619 31.663 47.6136 27.3599 56.0534 25.3943C56.2195 25.3528 56.3856 25.3114 56.5567 25.2687C61.8731 23.9773 68.4826 24.0513 73.7778 25.3943Z" fill="#E7C9A3"/>
<path d="M75.5501 0.833291C75.7977 0.872703 76.0453 0.912115 76.3004 0.952722C88.4706 2.9865 99.5628 8.72698 108.633 17.0077C109.176 17.4988 109.729 17.9735 110.287 18.4468C111.122 19.1752 111.846 19.9563 112.562 20.8018C113.054 21.3774 113.568 21.928 114.085 22.4823C125.476 35.167 130.385 52.1384 129.736 68.9453C129.599 71.1567 129.327 73.3416 128.976 75.5287C128.937 75.7762 128.898 76.0238 128.857 76.2789C126.827 88.4272 121.072 99.5527 112.802 108.611C112.311 109.154 111.836 109.707 111.363 110.265C110.634 111.1 109.853 111.825 109.008 112.54C108.432 113.033 107.882 113.547 107.327 114.063C103.089 117.865 98.1739 121.008 93.0148 123.405C92.6758 123.563 92.3379 123.723 92.001 123.885C80.3889 129.481 66.948 130.985 54.281 128.955C53.9096 128.896 53.9096 128.896 53.5307 128.835C41.3684 126.803 30.2639 121.057 21.1982 112.78C20.6556 112.289 20.1025 111.815 19.5444 111.341C18.7092 110.613 17.9846 109.832 17.2696 108.986C16.7771 108.411 16.2626 107.86 15.7464 107.306C13.1299 104.396 10.9454 101.173 8.95732 97.8107C8.85361 97.6379 8.7499 97.4652 8.64304 97.2872C0.0402046 82.8686 -2.01709 65.0713 1.921 48.867C4.61806 38.4254 9.77619 29.1211 17.0292 21.1767C17.5203 20.6341 17.995 20.081 18.4683 19.523C19.1967 18.6877 19.9778 17.9631 20.8233 17.2481C21.3989 16.7556 21.9494 16.2411 22.5038 15.7249C36.7262 2.95287 56.8456 -2.164 75.5501 0.833291ZM48.7105 10.2019C48.5058 10.2589 48.3011 10.3159 48.0902 10.3747C42.906 11.8648 37.9952 14.3051 33.5182 17.2916C33.3611 17.3956 33.2041 17.4996 33.0423 17.6067C28.0882 20.9215 23.4242 25.1843 19.8451 29.9518C19.7455 30.0841 19.6459 30.2164 19.5432 30.3526C10.3888 42.5894 6.30377 57.8189 8.45883 72.9917C10.0005 82.9348 13.9175 92.5524 20.3515 100.343C20.4666 100.484 20.5817 100.624 20.7003 100.769C23.3977 104.053 26.3263 107.139 29.7201 109.711C29.9628 109.897 29.9628 109.897 30.2103 110.086C32.9553 112.171 35.7696 113.962 38.8355 115.535C39.0196 115.631 39.2036 115.728 39.3933 115.827C52.4159 122.601 67.9481 123.672 81.907 119.344C88.5927 117.165 94.9313 113.945 100.364 109.458C100.505 109.343 100.646 109.228 100.791 109.109C104.075 106.412 107.161 103.483 109.733 100.09C109.856 99.9277 109.98 99.766 110.107 99.5993C112.193 96.8544 113.983 94.04 115.556 90.9741C115.653 90.7901 115.749 90.606 115.849 90.4163C122.674 77.2952 123.678 61.6714 119.291 47.6287C114.616 33.2824 104.433 21.1157 90.9867 14.2106C77.6991 7.52838 63.0398 6.20263 48.7105 10.2019Z" fill="#E7C9A3"/>
<path d="M62.89 11.9742C62.89 14.8152 62.89 17.6562 62.89 20.5832C61.5426 20.732 61.5426 20.732 60.168 20.8839C55.8324 21.4062 51.7199 22.4227 47.6977 24.1281C47.5252 24.2008 47.3527 24.2735 47.175 24.3484C43.3099 26.0051 39.7385 28.2074 36.5567 30.9646C36.3501 31.1435 36.1435 31.3223 35.9306 31.5066C35.2862 32.0764 34.6538 32.6568 34.0247 33.2434C33.7245 33.5186 33.7245 33.5186 33.4183 33.7993C25.3791 41.4619 21.6934 52.0664 20.6048 62.8684C17.7639 62.8684 14.9229 62.8684 11.9958 62.8684C12.678 52.3888 15.6158 42.5597 21.8708 34.003C21.9798 33.8519 22.0887 33.7007 22.2009 33.545C23.692 31.4876 25.3486 29.6075 27.1036 27.7734C27.3916 27.4718 27.676 27.1667 27.9596 26.8609C29.4874 25.258 31.2478 23.938 33.0118 22.6088C33.1576 22.4984 33.3033 22.3879 33.4535 22.274C35.7234 20.5645 38.0889 19.1113 40.608 17.7979C40.7733 17.7112 40.9385 17.6244 41.1088 17.535C47.6806 14.1343 55.4604 11.9742 62.89 11.9742Z" fill="#E7C9A3"/>
<path d="M66.9414 11.9742C79.1513 12.8676 91.1098 16.7402 100.111 25.3941C100.458 25.6966 100.806 25.9973 101.156 26.2961C108.536 32.7594 113.315 41.6678 116.063 50.9678C116.12 51.1594 116.177 51.3511 116.235 51.5486C117.268 55.157 117.836 59.1196 117.836 62.8684C114.995 62.8684 112.154 62.8684 109.227 62.8684C109.133 61.9858 109.039 61.1032 108.942 60.1939C107.886 51.3646 104.501 43.3914 98.8452 36.5351C98.507 36.1135 98.1693 35.6917 97.8324 35.2691C98.2157 34.3657 98.7452 33.7911 99.4406 33.105C99.656 32.8912 99.8715 32.6774 100.093 32.4571C100.319 32.2361 100.544 32.0152 100.776 31.7875C101.003 31.5626 101.23 31.3377 101.464 31.106C102.025 30.5513 102.587 29.9978 103.15 29.4454C102.767 28.64 102.37 28.1037 101.725 27.483C101.565 27.3277 101.406 27.1723 101.241 27.0122C101.058 26.8379 101.058 26.8379 100.871 26.6601C99.9675 27.0434 99.3929 27.5729 98.7067 28.2684C98.4929 28.4838 98.2791 28.6992 98.0589 28.9212C97.8379 29.1464 97.6169 29.3716 97.3893 29.6036C97.1644 29.8308 96.9395 30.058 96.7078 30.292C96.1531 30.8527 95.5996 31.4145 95.0471 31.9774C94.3455 31.6495 93.763 31.2877 93.1629 30.7994C85.4062 24.6055 76.7498 21.564 66.9414 20.5832C66.9414 17.7422 66.9414 14.9013 66.9414 11.9742Z" fill="#E7C9A3"/>
<path d="M109.227 66.9197C112.068 66.9197 114.908 66.9197 117.836 66.9197C116.913 79.5312 112.77 91.7352 103.656 100.849C101.734 98.9273 99.8124 97.0055 97.8323 95.0254C98.2115 94.2671 98.514 93.7479 99.0281 93.1056C99.1634 92.9342 99.2986 92.7629 99.4379 92.5863C99.5818 92.4042 99.7256 92.2221 99.8738 92.0344C105.596 84.6478 108.34 76.1507 109.227 66.9197Z" fill="#E7C9A3"/>
<path d="M69.2992 58.0259C71.2562 59.5733 72.6638 61.3707 73.0182 63.8812C73.2203 66.3873 72.4849 68.4861 70.8669 70.4082C69.1832 72.2475 67.3621 72.8793 64.8959 73.0045C62.4428 72.9783 60.6873 72.0384 58.902 70.4013C57.3444 68.7725 56.7241 66.6734 56.7577 64.45C56.9917 62.047 58.0545 60.1568 59.8515 58.5639C62.7841 56.3819 66.1053 56.218 69.2992 58.0259Z" fill="#E7C9A3"/>
<path d="M53.2683 67.6793C53.3509 67.881 53.4335 68.0827 53.5186 68.2906C53.6292 68.5589 53.7399 68.8272 53.8539 69.1036C54.0169 69.5002 54.0169 69.5002 54.1832 69.9048C54.526 70.6985 54.9044 71.4654 55.294 72.237C50.9673 74.7149 46.5424 76.997 42.0999 79.2589C40.7688 79.9368 39.4405 80.619 38.1173 81.3121C36.8225 81.9902 35.5221 82.6563 34.2172 83.3147C33.7273 83.5643 33.2394 83.8179 32.7539 84.0759C29.1406 85.99 26.2057 86.5209 22.1241 86.1633C22.3703 85.7316 22.6167 85.3001 22.8643 84.8693C23.0856 84.481 23.3009 84.0893 23.5144 83.6967C25.0443 81.2388 27.3222 80.3015 29.8439 79.0963C30.3067 78.8685 30.7691 78.6401 31.2312 78.4111C32.4448 77.8118 33.6623 77.221 34.8809 76.6321C36.1054 76.0388 37.3263 75.4382 38.5473 74.8378C39.9289 74.1585 41.3107 73.4798 42.6959 72.8078C45.2289 71.5771 47.7334 70.303 50.2195 68.98C52.6746 67.6793 52.6746 67.6793 53.2683 67.6793Z" fill="#E7C9A3"/>
<path d="M11.9958 66.9197C14.8368 66.9197 17.6778 66.9197 20.6048 66.9197C20.7536 68.267 20.7536 68.267 20.9055 69.6416C21.1787 71.9765 21.5979 74.2174 22.2409 76.4789C22.2951 76.6732 22.3492 76.8675 22.4049 77.0676C22.4545 77.2358 22.504 77.404 22.555 77.5773C22.6817 78.3892 22.4853 78.9002 22.0552 79.5899C21.9209 79.7701 21.7866 79.9502 21.6483 80.1358C21.4248 80.4375 21.4248 80.4375 21.1969 80.7452C21.0381 80.956 20.8792 81.1668 20.7156 81.384C20.5554 81.5989 20.3953 81.8137 20.2303 82.0351C19.1192 83.5201 17.9895 84.9875 16.8067 86.4164C15.35 85.6881 14.7914 82.1535 14.2936 80.6732C12.8735 76.2889 11.9958 71.5365 11.9958 66.9197Z" fill="#E7C9A3"/>
<path d="M18.5793 90.2144C19.9391 90.1388 21.2978 90.084 22.6592 90.0475C23.1211 90.0324 23.5828 90.0117 24.0442 89.9852C27.7665 89.7773 27.7665 89.7773 28.9068 90.5021C29.7846 91.2963 30.3745 92.2433 30.9863 93.2529C31.3182 93.6795 31.6539 94.1031 31.9991 94.5189C31.6034 95.4725 31.01 96.0727 30.2801 96.7938C30.1628 96.9104 30.0455 97.027 29.9246 97.1471C29.5517 97.5172 29.1771 97.8855 28.8024 98.2537C28.5484 98.5051 28.2946 98.7567 28.0408 99.0084C27.4204 99.6233 26.7983 100.237 26.1754 100.849C24.2104 98.8995 22.5413 96.9047 21.0322 94.5822C20.8019 94.2331 20.8019 94.2331 20.5668 93.877C18.5793 90.8552 18.5793 90.8552 18.5793 90.2144Z" fill="#E7C9A3"/>
<path d="M83.1464 53.2467C83.8577 53.57 84.2861 53.8319 84.7448 54.4653C85.057 55.4586 85.0683 56.2273 84.6145 57.1723C84.0919 57.8979 83.667 58.1641 82.8734 58.566C82.6211 58.6956 82.3688 58.8252 82.1089 58.9587C81.8455 59.0895 81.5821 59.2204 81.3107 59.3553C81.0512 59.4881 80.7917 59.621 80.5244 59.7578C79.2216 60.4201 77.9156 61.0485 76.5631 61.6025C76.2229 60.9919 75.8858 60.3799 75.5503 59.7667C75.4537 59.5941 75.3571 59.4214 75.2575 59.2435C75.1661 59.0754 75.0747 58.9073 74.9806 58.7341C74.8533 58.5034 74.8533 58.5034 74.7234 58.268C74.5375 57.8044 74.5375 57.8044 74.5375 56.7916C75.5174 56.2828 76.4992 55.7781 77.4831 55.2771C77.8171 55.1062 78.1506 54.9343 78.4835 54.7612C78.9636 54.512 79.4455 54.2667 79.928 54.0222C80.3616 53.7994 80.3616 53.7994 80.8039 53.5721C81.6657 53.2315 82.23 53.157 83.1464 53.2467Z" fill="#E7C9A3"/>
</svg>
